<svg xmlns="http://www.w3.org/2000/svg" viewBox="0 0 100 100" preserveAspectRatio="xMidYMid" width="200" height="200" style="shape-rendering: auto; display: block; background: transparent;" xmlns:xlink="http://www.w3.org/1999/xlink"><g><g transform="rotate(0 50 50)">
  <rect fill="#ffffff" height="5" width="5" ry="2.5" rx="2.5" y="39.5" x="47.5">
    <animate repeatCount="indefinite" begin="-0.9846153846153847s" dur="1s" keyTimes="0;1" values="1;0" attributeName="opacity"></animate>
  </rect>
</g><g transform="rotate(5.538461538461538 50 50)">
  <rect fill="#ffffff" height="5" width="5" ry="2.5" rx="2.5" y="39.5" x="47.5">
    <animate repeatCount="indefinite" begin="-0.9692307692307692s" dur="1s" keyTimes="0;1" values="1;0" attributeName="opacity"></animate>
  </rect>
</g><g transform="rotate(11.076923076923077 50 50)">
  <rect fill="#ffffff" height="5" width="5" ry="2.5" rx="2.5" y="39.5" x="47.5">
    <animate repeatCount="indefinite" begin="-0.9538461538461539s" dur="1s" keyTimes="0;1" values="1;0" attributeName="opacity"></animate>
  </rect>
</g><g transform="rotate(16.615384615384617 50 50)">
  <rect fill="#ffffff" height="5" width="5" ry="2.5" rx="2.5" y="39.5" x="47.5">
    <animate repeatCount="indefinite" begin="-0.9384615384615385s" dur="1s" keyTimes="0;1" values="1;0" attributeName="opacity"></animate>
  </rect>
</g><g transform="rotate(22.153846153846153 50 50)">
  <rect fill="#ffffff" height="5" width="5" ry="2.5" rx="2.5" y="39.5" x="47.5">
    <animate repeatCount="indefinite" begin="-0.9230769230769231s" dur="1s" keyTimes="0;1" values="1;0" attributeName="opacity"></animate>
  </rect>
</g><g transform="rotate(27.692307692307693 50 50)">
  <rect fill="#ffffff" height="5" width="5" ry="2.5" rx="2.5" y="39.5" x="47.5">
    <animate repeatCount="indefinite" begin="-0.9076923076923077s" dur="1s" keyTimes="0;1" values="1;0" attributeName="opacity"></animate>
  </rect>
</g><g transform="rotate(33.23076923076923 50 50)">
  <rect fill="#ffffff" height="5" width="5" ry="2.5" rx="2.5" y="39.5" x="47.5">
    <animate repeatCount="indefinite" begin="-0.8923076923076924s" dur="1s" keyTimes="0;1" values="1;0" attributeName="opacity"></animate>
  </rect>
</g><g transform="rotate(38.76923076923077 50 50)">
  <rect fill="#ffffff" height="5" width="5" ry="2.5" rx="2.5" y="39.5" x="47.5">
    <animate repeatCount="indefinite" begin="-0.8769230769230769s" dur="1s" keyTimes="0;1" values="1;0" attributeName="opacity"></animate>
  </rect>
</g><g transform="rotate(44.30769230769231 50 50)">
  <rect fill="#ffffff" height="5" width="5" ry="2.5" rx="2.5" y="39.5" x="47.5">
    <animate repeatCount="indefinite" begin="-0.8615384615384616s" dur="1s" keyTimes="0;1" values="1;0" attributeName="opacity"></animate>
  </rect>
</g><g transform="rotate(49.84615384615385 50 50)">
  <rect fill="#ffffff" height="5" width="5" ry="2.5" rx="2.5" y="39.5" x="47.5">
    <animate repeatCount="indefinite" begin="-0.8461538461538461s" dur="1s" keyTimes="0;1" values="1;0" attributeName="opacity"></animate>
  </rect>
</g><g transform="rotate(55.38461538461539 50 50)">
  <rect fill="#ffffff" height="5" width="5" ry="2.5" rx="2.5" y="39.5" x="47.5">
    <animate repeatCount="indefinite" begin="-0.8307692307692308s" dur="1s" keyTimes="0;1" values="1;0" attributeName="opacity"></animate>
  </rect>
</g><g transform="rotate(60.92307692307692 50 50)">
  <rect fill="#ffffff" height="5" width="5" ry="2.5" rx="2.5" y="39.5" x="47.5">
    <animate repeatCount="indefinite" begin="-0.8153846153846154s" dur="1s" keyTimes="0;1" values="1;0" attributeName="opacity"></animate>
  </rect>
</g><g transform="rotate(66.46153846153847 50 50)">
  <rect fill="#ffffff" height="5" width="5" ry="2.5" rx="2.5" y="39.5" x="47.5">
    <animate repeatCount="indefinite" begin="-0.8s" dur="1s" keyTimes="0;1" values="1;0" attributeName="opacity"></animate>
  </rect>
</g><g transform="rotate(72 50 50)">
  <rect fill="#ffffff" height="5" width="5" ry="2.5" rx="2.5" y="39.5" x="47.5">
    <animate repeatCount="indefinite" begin="-0.7846153846153846s" dur="1s" keyTimes="0;1" values="1;0" attributeName="opacity"></animate>
  </rect>
</g><g transform="rotate(77.53846153846153 50 50)">
  <rect fill="#ffffff" height="5" width="5" ry="2.5" rx="2.5" y="39.5" x="47.5">
    <animate repeatCount="indefinite" begin="-0.7692307692307693s" dur="1s" keyTimes="0;1" values="1;0" attributeName="opacity"></animate>
  </rect>
</g><g transform="rotate(83.07692307692308 50 50)">
  <rect fill="#ffffff" height="5" width="5" ry="2.5" rx="2.5" y="39.5" x="47.5">
    <animate repeatCount="indefinite" begin="-0.7538461538461538s" dur="1s" keyTimes="0;1" values="1;0" attributeName="opacity"></animate>
  </rect>
</g><g transform="rotate(88.61538461538461 50 50)">
  <rect fill="#ffffff" height="5" width="5" ry="2.5" rx="2.5" y="39.5" x="47.5">
    <animate repeatCount="indefinite" begin="-0.7384615384615385s" dur="1s" keyTimes="0;1" values="1;0" attributeName="opacity"></animate>
  </rect>
</g><g transform="rotate(94.15384615384616 50 50)">
  <rect fill="#ffffff" height="5" width="5" ry="2.5" rx="2.5" y="39.5" x="47.5">
    <animate repeatCount="indefinite" begin="-0.7230769230769231s" dur="1s" keyTimes="0;1" values="1;0" attributeName="opacity"></animate>
  </rect>
</g><g transform="rotate(99.6923076923077 50 50)">
  <rect fill="#ffffff" height="5" width="5" ry="2.5" rx="2.5" y="39.5" x="47.5">
    <animate repeatCount="indefinite" begin="-0.7076923076923077s" dur="1s" keyTimes="0;1" values="1;0" attributeName="opacity"></animate>
  </rect>
</g><g transform="rotate(105.23076923076923 50 50)">
  <rect fill="#ffffff" height="5" width="5" ry="2.5" rx="2.5" y="39.5" x="47.5">
    <animate repeatCount="indefinite" begin="-0.6923076923076923s" dur="1s" keyTimes="0;1" values="1;0" attributeName="opacity"></animate>
  </rect>
</g><g transform="rotate(110.76923076923077 50 50)">
  <rect fill="#ffffff" height="5" width="5" ry="2.5" rx="2.5" y="39.5" x="47.5">
    <animate repeatCount="indefinite" begin="-0.676923076923077s" dur="1s" keyTimes="0;1" values="1;0" attributeName="opacity"></animate>
  </rect>
</g><g transform="rotate(116.3076923076923 50 50)">
  <rect fill="#ffffff" height="5" width="5" ry="2.5" rx="2.5" y="39.5" x="47.5">
    <animate repeatCount="indefinite" begin="-0.6615384615384615s" dur="1s" keyTimes="0;1" values="1;0" attributeName="opacity"></animate>
  </rect>
</g><g transform="rotate(121.84615384615384 50 50)">
  <rect fill="#ffffff" height="5" width="5" ry="2.5" rx="2.5" y="39.5" x="47.5">
    <animate repeatCount="indefinite" begin="-0.6461538461538462s" dur="1s" keyTimes="0;1" values="1;0" attributeName="opacity"></animate>
  </rect>
</g><g transform="rotate(127.38461538461539 50 50)">
  <rect fill="#ffffff" height="5" width="5" ry="2.5" rx="2.5" y="39.5" x="47.5">
    <animate repeatCount="indefinite" begin="-0.6307692307692307s" dur="1s" keyTimes="0;1" values="1;0" attributeName="opacity"></animate>
  </rect>
</g><g transform="rotate(132.92307692307693 50 50)">
  <rect fill="#ffffff" height="5" width="5" ry="2.5" rx="2.5" y="39.5" x="47.5">
    <animate repeatCount="indefinite" begin="-0.6153846153846154s" dur="1s" keyTimes="0;1" values="1;0" attributeName="opacity"></animate>
  </rect>
</g><g transform="rotate(138.46153846153845 50 50)">
  <rect fill="#ffffff" height="5" width="5" ry="2.5" rx="2.5" y="39.5" x="47.5">
    <animate repeatCount="indefinite" begin="-0.6s" dur="1s" keyTimes="0;1" values="1;0" attributeName="opacity"></animate>
  </rect>
</g><g transform="rotate(144 50 50)">
  <rect fill="#ffffff" height="5" width="5" ry="2.5" rx="2.5" y="39.5" x="47.5">
    <animate repeatCount="indefinite" begin="-0.5846153846153846s" dur="1s" keyTimes="0;1" values="1;0" attributeName="opacity"></animate>
  </rect>
</g><g transform="rotate(149.53846153846155 50 50)">
  <rect fill="#ffffff" height="5" width="5" ry="2.5" rx="2.5" y="39.5" x="47.5">
    <animate repeatCount="indefinite" begin="-0.5692307692307692s" dur="1s" keyTimes="0;1" values="1;0" attributeName="opacity"></animate>
  </rect>
</g><g transform="rotate(155.07692307692307 50 50)">
  <rect fill="#ffffff" height="5" width="5" ry="2.5" rx="2.5" y="39.5" x="47.5">
    <animate repeatCount="indefinite" begin="-0.5538461538461539s" dur="1s" keyTimes="0;1" values="1;0" attributeName="opacity"></animate>
  </rect>
</g><g transform="rotate(160.6153846153846 50 50)">
  <rect fill="#ffffff" height="5" width="5" ry="2.5" rx="2.5" y="39.5" x="47.5">
    <animate repeatCount="indefinite" begin="-0.5384615384615384s" dur="1s" keyTimes="0;1" values="1;0" attributeName="opacity"></animate>
  </rect>
</g><g transform="rotate(166.15384615384616 50 50)">
  <rect fill="#ffffff" height="5" width="5" ry="2.5" rx="2.5" y="39.5" x="47.5">
    <animate repeatCount="indefinite" begin="-0.5230769230769231s" dur="1s" keyTimes="0;1" values="1;0" attributeName="opacity"></animate>
  </rect>
</g><g transform="rotate(171.69230769230768 50 50)">
  <rect fill="#ffffff" height="5" width="5" ry="2.5" rx="2.5" y="39.5" x="47.5">
    <animate repeatCount="indefinite" begin="-0.5076923076923077s" dur="1s" keyTimes="0;1" values="1;0" attributeName="opacity"></animate>
  </rect>
</g><g transform="rotate(177.23076923076923 50 50)">
  <rect fill="#ffffff" height="5" width="5" ry="2.5" rx="2.5" y="39.5" x="47.5">
    <animate repeatCount="indefinite" begin="-0.49230769230769234s" dur="1s" keyTimes="0;1" values="1;0" attributeName="opacity"></animate>
  </rect>
</g><g transform="rotate(182.76923076923077 50 50)">
  <rect fill="#ffffff" height="5" width="5" ry="2.5" rx="2.5" y="39.5" x="47.5">
    <animate repeatCount="indefinite" begin="-0.47692307692307695s" dur="1s" keyTimes="0;1" values="1;0" attributeName="opacity"></animate>
  </rect>
</g><g transform="rotate(188.30769230769232 50 50)">
  <rect fill="#ffffff" height="5" width="5" ry="2.5" rx="2.5" y="39.5" x="47.5">
    <animate repeatCount="indefinite" begin="-0.46153846153846156s" dur="1s" keyTimes="0;1" values="1;0" attributeName="opacity"></animate>
  </rect>
</g><g transform="rotate(193.84615384615384 50 50)">
  <rect fill="#ffffff" height="5" width="5" ry="2.5" rx="2.5" y="39.5" x="47.5">
    <animate repeatCount="indefinite" begin="-0.4461538461538462s" dur="1s" keyTimes="0;1" values="1;0" attributeName="opacity"></animate>
  </rect>
</g><g transform="rotate(199.3846153846154 50 50)">
  <rect fill="#ffffff" height="5" width="5" ry="2.5" rx="2.5" y="39.5" x="47.5">
    <animate repeatCount="indefinite" begin="-0.4307692307692308s" dur="1s" keyTimes="0;1" values="1;0" attributeName="opacity"></animate>
  </rect>
</g><g transform="rotate(204.92307692307693 50 50)">
  <rect fill="#ffffff" height="5" width="5" ry="2.5" rx="2.5" y="39.5" x="47.5">
    <animate repeatCount="indefinite" begin="-0.4153846153846154s" dur="1s" keyTimes="0;1" values="1;0" attributeName="opacity"></animate>
  </rect>
</g><g transform="rotate(210.46153846153845 50 50)">
  <rect fill="#ffffff" height="5" width="5" ry="2.5" rx="2.5" y="39.5" x="47.5">
    <animate repeatCount="indefinite" begin="-0.4s" dur="1s" keyTimes="0;1" values="1;0" attributeName="opacity"></animate>
  </rect>
</g><g transform="rotate(216 50 50)">
  <rect fill="#ffffff" height="5" width="5" ry="2.5" rx="2.5" y="39.5" x="47.5">
    <animate repeatCount="indefinite" begin="-0.38461538461538464s" dur="1s" keyTimes="0;1" values="1;0" attributeName="opacity"></animate>
  </rect>
</g><g transform="rotate(221.53846153846155 50 50)">
  <rect fill="#ffffff" height="5" width="5" ry="2.5" rx="2.5" y="39.5" x="47.5">
    <animate repeatCount="indefinite" begin="-0.36923076923076925s" dur="1s" keyTimes="0;1" values="1;0" attributeName="opacity"></animate>
  </rect>
</g><g transform="rotate(227.07692307692307 50 50)">
  <rect fill="#ffffff" height="5" width="5" ry="2.5" rx="2.5" y="39.5" x="47.5">
    <animate repeatCount="indefinite" begin="-0.35384615384615387s" dur="1s" keyTimes="0;1" values="1;0" attributeName="opacity"></animate>
  </rect>
</g><g transform="rotate(232.6153846153846 50 50)">
  <rect fill="#ffffff" height="5" width="5" ry="2.5" rx="2.5" y="39.5" x="47.5">
    <animate repeatCount="indefinite" begin="-0.3384615384615385s" dur="1s" keyTimes="0;1" values="1;0" attributeName="opacity"></animate>
  </rect>
</g><g transform="rotate(238.15384615384616 50 50)">
  <rect fill="#ffffff" height="5" width="5" ry="2.5" rx="2.5" y="39.5" x="47.5">
    <animate repeatCount="indefinite" begin="-0.3230769230769231s" dur="1s" keyTimes="0;1" values="1;0" attributeName="opacity"></animate>
  </rect>
</g><g transform="rotate(243.69230769230768 50 50)">
  <rect fill="#ffffff" height="5" width="5" ry="2.5" rx="2.5" y="39.5" x="47.5">
    <animate repeatCount="indefinite" begin="-0.3076923076923077s" dur="1s" keyTimes="0;1" values="1;0" attributeName="opacity"></animate>
  </rect>
</g><g transform="rotate(249.23076923076923 50 50)">
  <rect fill="#ffffff" height="5" width="5" ry="2.5" rx="2.5" y="39.5" x="47.5">
    <animate repeatCount="indefinite" begin="-0.2923076923076923s" dur="1s" keyTimes="0;1" values="1;0" attributeName="opacity"></animate>
  </rect>
</g><g transform="rotate(254.76923076923077 50 50)">
  <rect fill="#ffffff" height="5" width="5" ry="2.5" rx="2.5" y="39.5" x="47.5">
    <animate repeatCount="indefinite" begin="-0.27692307692307694s" dur="1s" keyTimes="0;1" values="1;0" attributeName="opacity"></animate>
  </rect>
</g><g transform="rotate(260.3076923076923 50 50)">
  <rect fill="#ffffff" height="5" width="5" ry="2.5" rx="2.5" y="39.5" x="47.5">
    <animate repeatCount="indefinite" begin="-0.26153846153846155s" dur="1s" keyTimes="0;1" values="1;0" attributeName="opacity"></animate>
  </rect>
</g><g transform="rotate(265.84615384615387 50 50)">
  <rect fill="#ffffff" height="5" width="5" ry="2.5" rx="2.5" y="39.5" x="47.5">
    <animate repeatCount="indefinite" begin="-0.24615384615384617s" dur="1s" keyTimes="0;1" values="1;0" attributeName="opacity"></animate>
  </rect>
</g><g transform="rotate(271.38461538461536 50 50)">
  <rect fill="#ffffff" height="5" width="5" ry="2.5" rx="2.5" y="39.5" x="47.5">
    <animate repeatCount="indefinite" begin="-0.23076923076923078s" dur="1s" keyTimes="0;1" values="1;0" attributeName="opacity"></animate>
  </rect>
</g><g transform="rotate(276.9230769230769 50 50)">
  <rect fill="#ffffff" height="5" width="5" ry="2.5" rx="2.5" y="39.5" x="47.5">
    <animate repeatCount="indefinite" begin="-0.2153846153846154s" dur="1s" keyTimes="0;1" values="1;0" attributeName="opacity"></animate>
  </rect>
</g><g transform="rotate(282.46153846153845 50 50)">
  <rect fill="#ffffff" height="5" width="5" ry="2.5" rx="2.5" y="39.5" x="47.5">
    <animate repeatCount="indefinite" begin="-0.2s" dur="1s" keyTimes="0;1" values="1;0" attributeName="opacity"></animate>
  </rect>
</g><g transform="rotate(288 50 50)">
  <rect fill="#ffffff" height="5" width="5" ry="2.5" rx="2.5" y="39.5" x="47.5">
    <animate repeatCount="indefinite" begin="-0.18461538461538463s" dur="1s" keyTimes="0;1" values="1;0" attributeName="opacity"></animate>
  </rect>
</g><g transform="rotate(293.53846153846155 50 50)">
  <rect fill="#ffffff" height="5" width="5" ry="2.5" rx="2.5" y="39.5" x="47.5">
    <animate repeatCount="indefinite" begin="-0.16923076923076924s" dur="1s" keyTimes="0;1" values="1;0" attributeName="opacity"></animate>
  </rect>
</g><g transform="rotate(299.0769230769231 50 50)">
  <rect fill="#ffffff" height="5" width="5" ry="2.5" rx="2.5" y="39.5" x="47.5">
    <animate repeatCount="indefinite" begin="-0.15384615384615385s" dur="1s" keyTimes="0;1" values="1;0" attributeName="opacity"></animate>
  </rect>
</g><g transform="rotate(304.61538461538464 50 50)">
  <rect fill="#ffffff" height="5" width="5" ry="2.5" rx="2.5" y="39.5" x="47.5">
    <animate repeatCount="indefinite" begin="-0.13846153846153847s" dur="1s" keyTimes="0;1" values="1;0" attributeName="opacity"></animate>
  </rect>
</g><g transform="rotate(310.15384615384613 50 50)">
  <rect fill="#ffffff" height="5" width="5" ry="2.5" rx="2.5" y="39.5" x="47.5">
    <animate repeatCount="indefinite" begin="-0.12307692307692308s" dur="1s" keyTimes="0;1" values="1;0" attributeName="opacity"></animate>
  </rect>
</g><g transform="rotate(315.6923076923077 50 50)">
  <rect fill="#ffffff" height="5" width="5" ry="2.5" rx="2.5" y="39.5" x="47.5">
    <animate repeatCount="indefinite" begin="-0.1076923076923077s" dur="1s" keyTimes="0;1" values="1;0" attributeName="opacity"></animate>
  </rect>
</g><g transform="rotate(321.2307692307692 50 50)">
  <rect fill="#ffffff" height="5" width="5" ry="2.5" rx="2.5" y="39.5" x="47.5">
    <animate repeatCount="indefinite" begin="-0.09230769230769231s" dur="1s" keyTimes="0;1" values="1;0" attributeName="opacity"></animate>
  </rect>
</g><g transform="rotate(326.7692307692308 50 50)">
  <rect fill="#ffffff" height="5" width="5" ry="2.5" rx="2.5" y="39.5" x="47.5">
    <animate repeatCount="indefinite" begin="-0.07692307692307693s" dur="1s" keyTimes="0;1" values="1;0" attributeName="opacity"></animate>
  </rect>
</g><g transform="rotate(332.3076923076923 50 50)">
  <rect fill="#ffffff" height="5" width="5" ry="2.5" rx="2.5" y="39.5" x="47.5">
    <animate repeatCount="indefinite" begin="-0.06153846153846154s" dur="1s" keyTimes="0;1" values="1;0" attributeName="opacity"></animate>
  </rect>
</g><g transform="rotate(337.84615384615387 50 50)">
  <rect fill="#ffffff" height="5" width="5" ry="2.5" rx="2.5" y="39.5" x="47.5">
    <animate repeatCount="indefinite" begin="-0.046153846153846156s" dur="1s" keyTimes="0;1" values="1;0" attributeName="opacity"></animate>
  </rect>
</g><g transform="rotate(343.38461538461536 50 50)">
  <rect fill="#ffffff" height="5" width="5" ry="2.5" rx="2.5" y="39.5" x="47.5">
    <animate repeatCount="indefinite" begin="-0.03076923076923077s" dur="1s" keyTimes="0;1" values="1;0" attributeName="opacity"></animate>
  </rect>
</g><g transform="rotate(348.9230769230769 50 50)">
  <rect fill="#ffffff" height="5" width="5" ry="2.5" rx="2.5" y="39.5" x="47.5">
    <animate repeatCount="indefinite" begin="-0.015384615384615385s" dur="1s" keyTimes="0;1" values="1;0" attributeName="opacity"></animate>
  </rect>
</g><g transform="rotate(354.46153846153845 50 50)">
  <rect fill="#ffffff" height="5" width="5" ry="2.5" rx="2.5" y="39.5" x="47.5">
    <animate repeatCount="indefinite" begin="0s" dur="1s" keyTimes="0;1" values="1;0" attributeName="opacity"></animate>
  </rect>
</g><g></g></g><!-- [ldio] generated by https://loading.io --></svg>